<mxfile host="Electron" modified="2024-04-04T07:03:55.321Z" agent="Mozilla/5.0 (Windows NT 10.0; Win64; x64) AppleWebKit/537.36 (KHTML, like Gecko) draw.io/24.1.0 Chrome/120.0.6099.109 Electron/28.1.0 Safari/537.36" etag="hVOvi1rTruJxHhD9fBJK" version="24.1.0" type="device">
  <diagram name="Page-1" id="QDoQ7qfWk_MxZgzr1TOT">
    <mxGraphModel dx="875" dy="524" grid="1" gridSize="10" guides="1" tooltips="1" connect="1" arrows="1" fold="1" page="1" pageScale="1" pageWidth="850" pageHeight="1100" math="0" shadow="0">
      <root>
        <mxCell id="0" />
        <mxCell id="1" parent="0" />
        <mxCell id="piL9ZrU1X9L6YbfZWIU2-4" value="of" style="rounded=0;orthogonalLoop=1;jettySize=auto;html=1;" edge="1" parent="1" source="piL9ZrU1X9L6YbfZWIU2-1" target="piL9ZrU1X9L6YbfZWIU2-3">
          <mxGeometry relative="1" as="geometry" />
        </mxCell>
        <mxCell id="piL9ZrU1X9L6YbfZWIU2-1" value="Specified Ordered Group" style="ellipse;whiteSpace=wrap;html=1;fillColor=#fff2cc;strokeColor=#d6b656;" vertex="1" parent="1">
          <mxGeometry x="100" y="290" width="120" height="80" as="geometry" />
        </mxCell>
        <mxCell id="piL9ZrU1X9L6YbfZWIU2-2" value="Group&lt;div&gt;&lt;span style=&quot;white-space: pre;&quot;&gt;&#x9;&lt;/span&gt;Specified Group&lt;br&gt;&lt;/div&gt;&lt;div&gt;&lt;span style=&quot;white-space: pre;&quot;&gt;&lt;span style=&quot;white-space: pre;&quot;&gt;&#x9;&lt;/span&gt;&#x9;&lt;/span&gt;Ordered group&lt;br&gt;&lt;/div&gt;&lt;div&gt;&lt;span style=&quot;white-space: pre;&quot;&gt;&#x9;&lt;/span&gt;&lt;span style=&quot;white-space: pre;&quot;&gt;&#x9;&lt;/span&gt;&lt;span style=&quot;white-space: pre;&quot;&gt;&#x9;&lt;/span&gt;Non Cyclic&lt;br&gt;&lt;/div&gt;&lt;div&gt;&lt;span style=&quot;white-space: pre;&quot;&gt;&#x9;&lt;/span&gt;&lt;span style=&quot;white-space: pre;&quot;&gt;&#x9;&lt;/span&gt;&lt;span style=&quot;white-space: pre;&quot;&gt;&#x9;&lt;/span&gt;Cyclic&lt;br&gt;&lt;/div&gt;&lt;div&gt;&lt;span style=&quot;white-space: pre;&quot;&gt;&#x9;&lt;/span&gt;&lt;span style=&quot;white-space: pre;&quot;&gt;&#x9;&lt;/span&gt;Unordered Group&lt;br&gt;&lt;/div&gt;" style="shape=note;whiteSpace=wrap;html=1;backgroundOutline=1;darkOpacity=0.05;align=left;" vertex="1" parent="1">
          <mxGeometry x="30" y="20" width="170" height="200" as="geometry" />
        </mxCell>
        <mxCell id="piL9ZrU1X9L6YbfZWIU2-3" value="Group Item" style="ellipse;whiteSpace=wrap;html=1;fillColor=#fff2cc;strokeColor=#d6b656;" vertex="1" parent="1">
          <mxGeometry x="470" y="290" width="120" height="80" as="geometry" />
        </mxCell>
        <mxCell id="piL9ZrU1X9L6YbfZWIU2-8" style="edgeStyle=orthogonalEdgeStyle;rounded=0;orthogonalLoop=1;jettySize=auto;html=1;" edge="1" parent="1" source="piL9ZrU1X9L6YbfZWIU2-7" target="piL9ZrU1X9L6YbfZWIU2-1">
          <mxGeometry relative="1" as="geometry" />
        </mxCell>
        <mxCell id="piL9ZrU1X9L6YbfZWIU2-9" value="instance_of" style="edgeLabel;html=1;align=center;verticalAlign=middle;resizable=0;points=[];" vertex="1" connectable="0" parent="piL9ZrU1X9L6YbfZWIU2-8">
          <mxGeometry x="-0.12" y="4" relative="1" as="geometry">
            <mxPoint as="offset" />
          </mxGeometry>
        </mxCell>
        <mxCell id="piL9ZrU1X9L6YbfZWIU2-11" value="" style="edgeStyle=orthogonalEdgeStyle;rounded=0;orthogonalLoop=1;jettySize=auto;html=1;" edge="1" parent="1" source="piL9ZrU1X9L6YbfZWIU2-7" target="piL9ZrU1X9L6YbfZWIU2-10">
          <mxGeometry relative="1" as="geometry" />
        </mxCell>
        <mxCell id="piL9ZrU1X9L6YbfZWIU2-12" value="contains" style="edgeLabel;html=1;align=center;verticalAlign=middle;resizable=0;points=[];" vertex="1" connectable="0" parent="piL9ZrU1X9L6YbfZWIU2-11">
          <mxGeometry x="-0.2443" y="5" relative="1" as="geometry">
            <mxPoint as="offset" />
          </mxGeometry>
        </mxCell>
        <mxCell id="piL9ZrU1X9L6YbfZWIU2-17" style="edgeStyle=orthogonalEdgeStyle;rounded=0;orthogonalLoop=1;jettySize=auto;html=1;" edge="1" parent="1" source="piL9ZrU1X9L6YbfZWIU2-7" target="piL9ZrU1X9L6YbfZWIU2-15">
          <mxGeometry relative="1" as="geometry">
            <Array as="points">
              <mxPoint x="160" y="710" />
            </Array>
          </mxGeometry>
        </mxCell>
        <mxCell id="piL9ZrU1X9L6YbfZWIU2-18" value="contains" style="edgeLabel;html=1;align=center;verticalAlign=middle;resizable=0;points=[];" vertex="1" connectable="0" parent="piL9ZrU1X9L6YbfZWIU2-17">
          <mxGeometry x="0.264" relative="1" as="geometry">
            <mxPoint as="offset" />
          </mxGeometry>
        </mxCell>
        <mxCell id="piL9ZrU1X9L6YbfZWIU2-19" style="edgeStyle=orthogonalEdgeStyle;rounded=0;orthogonalLoop=1;jettySize=auto;html=1;" edge="1" parent="1" source="piL9ZrU1X9L6YbfZWIU2-7" target="piL9ZrU1X9L6YbfZWIU2-16">
          <mxGeometry relative="1" as="geometry">
            <Array as="points">
              <mxPoint x="160" y="830" />
            </Array>
          </mxGeometry>
        </mxCell>
        <mxCell id="piL9ZrU1X9L6YbfZWIU2-20" value="contains" style="edgeLabel;html=1;align=center;verticalAlign=middle;resizable=0;points=[];" vertex="1" connectable="0" parent="piL9ZrU1X9L6YbfZWIU2-19">
          <mxGeometry x="0.4069" y="3" relative="1" as="geometry">
            <mxPoint as="offset" />
          </mxGeometry>
        </mxCell>
        <mxCell id="piL9ZrU1X9L6YbfZWIU2-24" style="edgeStyle=orthogonalEdgeStyle;rounded=0;orthogonalLoop=1;jettySize=auto;html=1;" edge="1" parent="1" source="piL9ZrU1X9L6YbfZWIU2-7" target="piL9ZrU1X9L6YbfZWIU2-10">
          <mxGeometry relative="1" as="geometry">
            <Array as="points">
              <mxPoint x="340" y="550" />
              <mxPoint x="340" y="550" />
            </Array>
          </mxGeometry>
        </mxCell>
        <mxCell id="piL9ZrU1X9L6YbfZWIU2-25" value="has_first_element" style="edgeLabel;html=1;align=center;verticalAlign=middle;resizable=0;points=[];" vertex="1" connectable="0" parent="piL9ZrU1X9L6YbfZWIU2-24">
          <mxGeometry x="-0.0289" y="6" relative="1" as="geometry">
            <mxPoint as="offset" />
          </mxGeometry>
        </mxCell>
        <mxCell id="piL9ZrU1X9L6YbfZWIU2-27" style="edgeStyle=orthogonalEdgeStyle;rounded=0;orthogonalLoop=1;jettySize=auto;html=1;" edge="1" parent="1" source="piL9ZrU1X9L6YbfZWIU2-7" target="piL9ZrU1X9L6YbfZWIU2-16">
          <mxGeometry relative="1" as="geometry">
            <Array as="points">
              <mxPoint x="160" y="860" />
            </Array>
          </mxGeometry>
        </mxCell>
        <mxCell id="piL9ZrU1X9L6YbfZWIU2-28" value="has_last_element" style="edgeLabel;html=1;align=center;verticalAlign=middle;resizable=0;points=[];" vertex="1" connectable="0" parent="piL9ZrU1X9L6YbfZWIU2-27">
          <mxGeometry x="0.4266" y="4" relative="1" as="geometry">
            <mxPoint as="offset" />
          </mxGeometry>
        </mxCell>
        <mxCell id="piL9ZrU1X9L6YbfZWIU2-7" value="Specified Ordered Group&lt;div&gt;&lt;br&gt;&lt;/div&gt;&lt;div&gt;01&lt;/div&gt;" style="ellipse;whiteSpace=wrap;html=1;fillColor=#e1d5e7;strokeColor=#9673a6;" vertex="1" parent="1">
          <mxGeometry x="100" y="540" width="120" height="80" as="geometry" />
        </mxCell>
        <mxCell id="piL9ZrU1X9L6YbfZWIU2-13" style="edgeStyle=orthogonalEdgeStyle;rounded=0;orthogonalLoop=1;jettySize=auto;html=1;" edge="1" parent="1" source="piL9ZrU1X9L6YbfZWIU2-10" target="piL9ZrU1X9L6YbfZWIU2-3">
          <mxGeometry relative="1" as="geometry" />
        </mxCell>
        <mxCell id="piL9ZrU1X9L6YbfZWIU2-14" value="instance_of" style="edgeLabel;html=1;align=center;verticalAlign=middle;resizable=0;points=[];" vertex="1" connectable="0" parent="piL9ZrU1X9L6YbfZWIU2-13">
          <mxGeometry x="0.1153" y="-2" relative="1" as="geometry">
            <mxPoint as="offset" />
          </mxGeometry>
        </mxCell>
        <mxCell id="piL9ZrU1X9L6YbfZWIU2-29" style="edgeStyle=orthogonalEdgeStyle;rounded=0;orthogonalLoop=1;jettySize=auto;html=1;exitX=0.252;exitY=0.96;exitDx=0;exitDy=0;exitPerimeter=0;entryX=0.25;entryY=0.041;entryDx=0;entryDy=0;entryPerimeter=0;" edge="1" parent="1" source="piL9ZrU1X9L6YbfZWIU2-10" target="piL9ZrU1X9L6YbfZWIU2-15">
          <mxGeometry relative="1" as="geometry">
            <Array as="points" />
          </mxGeometry>
        </mxCell>
        <mxCell id="piL9ZrU1X9L6YbfZWIU2-30" value="next" style="edgeLabel;html=1;align=center;verticalAlign=middle;resizable=0;points=[];" vertex="1" connectable="0" parent="piL9ZrU1X9L6YbfZWIU2-29">
          <mxGeometry x="-0.0753" y="-1" relative="1" as="geometry">
            <mxPoint as="offset" />
          </mxGeometry>
        </mxCell>
        <mxCell id="piL9ZrU1X9L6YbfZWIU2-10" value="Specified Ordered Group Item&lt;div&gt;&lt;br&gt;&lt;/div&gt;&lt;div&gt;01&lt;/div&gt;" style="ellipse;whiteSpace=wrap;html=1;fillColor=#e1d5e7;strokeColor=#9673a6;" vertex="1" parent="1">
          <mxGeometry x="470" y="540" width="120" height="80" as="geometry" />
        </mxCell>
        <mxCell id="piL9ZrU1X9L6YbfZWIU2-21" style="edgeStyle=orthogonalEdgeStyle;rounded=0;orthogonalLoop=1;jettySize=auto;html=1;" edge="1" parent="1" source="piL9ZrU1X9L6YbfZWIU2-15" target="piL9ZrU1X9L6YbfZWIU2-3">
          <mxGeometry relative="1" as="geometry">
            <Array as="points">
              <mxPoint x="630" y="710" />
              <mxPoint x="630" y="330" />
            </Array>
          </mxGeometry>
        </mxCell>
        <mxCell id="piL9ZrU1X9L6YbfZWIU2-22" value="instance_of" style="edgeLabel;html=1;align=center;verticalAlign=middle;resizable=0;points=[];" vertex="1" connectable="0" parent="piL9ZrU1X9L6YbfZWIU2-21">
          <mxGeometry x="0.0609" y="-1" relative="1" as="geometry">
            <mxPoint as="offset" />
          </mxGeometry>
        </mxCell>
        <mxCell id="piL9ZrU1X9L6YbfZWIU2-31" style="edgeStyle=orthogonalEdgeStyle;rounded=0;orthogonalLoop=1;jettySize=auto;html=1;" edge="1" parent="1" source="piL9ZrU1X9L6YbfZWIU2-15" target="piL9ZrU1X9L6YbfZWIU2-10">
          <mxGeometry relative="1" as="geometry">
            <Array as="points">
              <mxPoint x="560" y="640" />
              <mxPoint x="560" y="640" />
            </Array>
          </mxGeometry>
        </mxCell>
        <mxCell id="piL9ZrU1X9L6YbfZWIU2-32" value="before" style="edgeLabel;html=1;align=center;verticalAlign=middle;resizable=0;points=[];" vertex="1" connectable="0" parent="piL9ZrU1X9L6YbfZWIU2-31">
          <mxGeometry x="0.0128" y="-2" relative="1" as="geometry">
            <mxPoint as="offset" />
          </mxGeometry>
        </mxCell>
        <mxCell id="piL9ZrU1X9L6YbfZWIU2-33" style="edgeStyle=orthogonalEdgeStyle;rounded=0;orthogonalLoop=1;jettySize=auto;html=1;" edge="1" parent="1" source="piL9ZrU1X9L6YbfZWIU2-15" target="piL9ZrU1X9L6YbfZWIU2-16">
          <mxGeometry relative="1" as="geometry">
            <Array as="points">
              <mxPoint x="500" y="770" />
              <mxPoint x="500" y="770" />
            </Array>
          </mxGeometry>
        </mxCell>
        <mxCell id="piL9ZrU1X9L6YbfZWIU2-34" value="next" style="edgeLabel;html=1;align=center;verticalAlign=middle;resizable=0;points=[];" vertex="1" connectable="0" parent="piL9ZrU1X9L6YbfZWIU2-33">
          <mxGeometry x="-0.1583" relative="1" as="geometry">
            <mxPoint as="offset" />
          </mxGeometry>
        </mxCell>
        <mxCell id="piL9ZrU1X9L6YbfZWIU2-15" value="Specified Ordered Group Item&lt;div&gt;&lt;br&gt;&lt;/div&gt;&lt;div&gt;02&lt;/div&gt;" style="ellipse;whiteSpace=wrap;html=1;fillColor=#e1d5e7;strokeColor=#9673a6;" vertex="1" parent="1">
          <mxGeometry x="470" y="670" width="120" height="80" as="geometry" />
        </mxCell>
        <mxCell id="piL9ZrU1X9L6YbfZWIU2-23" style="edgeStyle=orthogonalEdgeStyle;rounded=0;orthogonalLoop=1;jettySize=auto;html=1;" edge="1" parent="1" source="piL9ZrU1X9L6YbfZWIU2-16" target="piL9ZrU1X9L6YbfZWIU2-3">
          <mxGeometry relative="1" as="geometry">
            <Array as="points">
              <mxPoint x="630" y="830" />
              <mxPoint x="630" y="330" />
            </Array>
          </mxGeometry>
        </mxCell>
        <mxCell id="piL9ZrU1X9L6YbfZWIU2-35" value="before" style="edgeStyle=orthogonalEdgeStyle;rounded=0;orthogonalLoop=1;jettySize=auto;html=1;" edge="1" parent="1" source="piL9ZrU1X9L6YbfZWIU2-16" target="piL9ZrU1X9L6YbfZWIU2-15">
          <mxGeometry relative="1" as="geometry">
            <Array as="points">
              <mxPoint x="560" y="770" />
              <mxPoint x="560" y="770" />
            </Array>
          </mxGeometry>
        </mxCell>
        <mxCell id="piL9ZrU1X9L6YbfZWIU2-16" value="Specified Ordered Group Item&lt;div&gt;&lt;br&gt;&lt;/div&gt;&lt;div&gt;03&lt;/div&gt;" style="ellipse;whiteSpace=wrap;html=1;fillColor=#e1d5e7;strokeColor=#9673a6;" vertex="1" parent="1">
          <mxGeometry x="470" y="790" width="120" height="80" as="geometry" />
        </mxCell>
        <mxCell id="piL9ZrU1X9L6YbfZWIU2-36" value="Traversal of Specified Ordered Group" style="shape=note;whiteSpace=wrap;html=1;backgroundOutline=1;darkOpacity=0.05;" vertex="1" parent="1">
          <mxGeometry x="30" y="940" width="80" height="100" as="geometry" />
        </mxCell>
        <mxCell id="piL9ZrU1X9L6YbfZWIU2-37" value="Traversal Rule 1" style="swimlane;whiteSpace=wrap;html=1;" vertex="1" parent="1">
          <mxGeometry x="160" y="940" width="550" height="320" as="geometry" />
        </mxCell>
        <mxCell id="piL9ZrU1X9L6YbfZWIU2-39" value="Specified Ordered Group" style="ellipse;whiteSpace=wrap;html=1;fillColor=#fff2cc;strokeColor=#d6b656;" vertex="1" parent="piL9ZrU1X9L6YbfZWIU2-37">
          <mxGeometry x="10" y="45" width="70" height="50" as="geometry" />
        </mxCell>
        <mxCell id="piL9ZrU1X9L6YbfZWIU2-40" value="Group Item" style="ellipse;whiteSpace=wrap;html=1;fillColor=#fff2cc;strokeColor=#d6b656;" vertex="1" parent="piL9ZrU1X9L6YbfZWIU2-37">
          <mxGeometry x="150" y="45" width="80" height="40" as="geometry" />
        </mxCell>
        <mxCell id="piL9ZrU1X9L6YbfZWIU2-42" value="has_first_element" style="edgeStyle=orthogonalEdgeStyle;rounded=0;orthogonalLoop=1;jettySize=auto;html=1;" edge="1" parent="piL9ZrU1X9L6YbfZWIU2-37" source="piL9ZrU1X9L6YbfZWIU2-43" target="piL9ZrU1X9L6YbfZWIU2-44">
          <mxGeometry relative="1" as="geometry">
            <Array as="points">
              <mxPoint x="40" y="250" />
            </Array>
          </mxGeometry>
        </mxCell>
        <mxCell id="piL9ZrU1X9L6YbfZWIU2-47" value="implements" style="edgeStyle=orthogonalEdgeStyle;rounded=0;orthogonalLoop=1;jettySize=auto;html=1;" edge="1" parent="piL9ZrU1X9L6YbfZWIU2-37" source="piL9ZrU1X9L6YbfZWIU2-43" target="piL9ZrU1X9L6YbfZWIU2-39">
          <mxGeometry relative="1" as="geometry" />
        </mxCell>
        <mxCell id="piL9ZrU1X9L6YbfZWIU2-43" value="Specified Ordered Group:?" style="ellipse;whiteSpace=wrap;html=1;fillColor=#e1d5e7;strokeColor=#9673a6;" vertex="1" parent="piL9ZrU1X9L6YbfZWIU2-37">
          <mxGeometry x="10" y="150" width="70" height="50" as="geometry" />
        </mxCell>
        <mxCell id="piL9ZrU1X9L6YbfZWIU2-48" value="implements" style="edgeStyle=orthogonalEdgeStyle;rounded=0;orthogonalLoop=1;jettySize=auto;html=1;" edge="1" parent="piL9ZrU1X9L6YbfZWIU2-37" source="piL9ZrU1X9L6YbfZWIU2-44" target="piL9ZrU1X9L6YbfZWIU2-40">
          <mxGeometry relative="1" as="geometry" />
        </mxCell>
        <mxCell id="piL9ZrU1X9L6YbfZWIU2-51" style="rounded=0;orthogonalLoop=1;jettySize=auto;html=1;" edge="1" parent="piL9ZrU1X9L6YbfZWIU2-37" source="piL9ZrU1X9L6YbfZWIU2-44" target="piL9ZrU1X9L6YbfZWIU2-50">
          <mxGeometry relative="1" as="geometry" />
        </mxCell>
        <mxCell id="piL9ZrU1X9L6YbfZWIU2-44" value="Group Item:?" style="ellipse;whiteSpace=wrap;html=1;fillColor=#e1d5e7;strokeColor=#9673a6;" vertex="1" parent="piL9ZrU1X9L6YbfZWIU2-37">
          <mxGeometry x="150" y="230" width="80" height="40" as="geometry" />
        </mxCell>
        <mxCell id="piL9ZrU1X9L6YbfZWIU2-50" value="Group Item:?" style="ellipse;whiteSpace=wrap;html=1;fillColor=#fff2cc;strokeColor=#d6b656;" vertex="1" parent="piL9ZrU1X9L6YbfZWIU2-37">
          <mxGeometry x="360" y="140" width="80" height="40" as="geometry" />
        </mxCell>
        <mxCell id="piL9ZrU1X9L6YbfZWIU2-49" value="" style="endArrow=none;html=1;rounded=0;" edge="1" parent="1">
          <mxGeometry width="50" height="50" relative="1" as="geometry">
            <mxPoint x="420" y="1260" as="sourcePoint" />
            <mxPoint x="420" y="970" as="targetPoint" />
          </mxGeometry>
        </mxCell>
        <mxCell id="piL9ZrU1X9L6YbfZWIU2-52" value="Traversal Rule 2" style="swimlane;whiteSpace=wrap;html=1;" vertex="1" parent="1">
          <mxGeometry x="150" y="1330" width="550" height="320" as="geometry" />
        </mxCell>
        <mxCell id="piL9ZrU1X9L6YbfZWIU2-53" value="Group Item" style="ellipse;whiteSpace=wrap;html=1;fillColor=#fff2cc;strokeColor=#d6b656;" vertex="1" parent="piL9ZrU1X9L6YbfZWIU2-52">
          <mxGeometry x="10" y="45" width="70" height="50" as="geometry" />
        </mxCell>
        <mxCell id="piL9ZrU1X9L6YbfZWIU2-54" value="Group Item" style="ellipse;whiteSpace=wrap;html=1;fillColor=#fff2cc;strokeColor=#d6b656;" vertex="1" parent="piL9ZrU1X9L6YbfZWIU2-52">
          <mxGeometry x="150" y="45" width="80" height="45" as="geometry" />
        </mxCell>
        <mxCell id="piL9ZrU1X9L6YbfZWIU2-55" value="next" style="edgeStyle=orthogonalEdgeStyle;rounded=0;orthogonalLoop=1;jettySize=auto;html=1;" edge="1" parent="piL9ZrU1X9L6YbfZWIU2-52" source="piL9ZrU1X9L6YbfZWIU2-57" target="piL9ZrU1X9L6YbfZWIU2-60">
          <mxGeometry relative="1" as="geometry">
            <Array as="points">
              <mxPoint x="40" y="250" />
            </Array>
          </mxGeometry>
        </mxCell>
        <mxCell id="piL9ZrU1X9L6YbfZWIU2-56" value="implements" style="edgeStyle=orthogonalEdgeStyle;rounded=0;orthogonalLoop=1;jettySize=auto;html=1;" edge="1" parent="piL9ZrU1X9L6YbfZWIU2-52" source="piL9ZrU1X9L6YbfZWIU2-57" target="piL9ZrU1X9L6YbfZWIU2-53">
          <mxGeometry relative="1" as="geometry" />
        </mxCell>
        <mxCell id="piL9ZrU1X9L6YbfZWIU2-57" value="Group Item:?1" style="ellipse;whiteSpace=wrap;html=1;fillColor=#e1d5e7;strokeColor=#9673a6;" vertex="1" parent="piL9ZrU1X9L6YbfZWIU2-52">
          <mxGeometry x="10" y="150" width="70" height="50" as="geometry" />
        </mxCell>
        <mxCell id="piL9ZrU1X9L6YbfZWIU2-58" value="implements" style="edgeStyle=orthogonalEdgeStyle;rounded=0;orthogonalLoop=1;jettySize=auto;html=1;" edge="1" parent="piL9ZrU1X9L6YbfZWIU2-52" source="piL9ZrU1X9L6YbfZWIU2-60" target="piL9ZrU1X9L6YbfZWIU2-54">
          <mxGeometry relative="1" as="geometry" />
        </mxCell>
        <mxCell id="piL9ZrU1X9L6YbfZWIU2-59" style="rounded=0;orthogonalLoop=1;jettySize=auto;html=1;" edge="1" parent="piL9ZrU1X9L6YbfZWIU2-52" source="piL9ZrU1X9L6YbfZWIU2-60" target="piL9ZrU1X9L6YbfZWIU2-61">
          <mxGeometry relative="1" as="geometry" />
        </mxCell>
        <mxCell id="piL9ZrU1X9L6YbfZWIU2-60" value="Group Item:?2" style="ellipse;whiteSpace=wrap;html=1;fillColor=#e1d5e7;strokeColor=#9673a6;" vertex="1" parent="piL9ZrU1X9L6YbfZWIU2-52">
          <mxGeometry x="150" y="230" width="80" height="40" as="geometry" />
        </mxCell>
        <mxCell id="piL9ZrU1X9L6YbfZWIU2-61" value="Group Item:?2" style="ellipse;whiteSpace=wrap;html=1;fillColor=#fff2cc;strokeColor=#d6b656;" vertex="1" parent="piL9ZrU1X9L6YbfZWIU2-52">
          <mxGeometry x="360" y="140" width="80" height="40" as="geometry" />
        </mxCell>
        <mxCell id="piL9ZrU1X9L6YbfZWIU2-62" value="" style="endArrow=none;html=1;rounded=0;" edge="1" parent="1">
          <mxGeometry width="50" height="50" relative="1" as="geometry">
            <mxPoint x="410" y="1650" as="sourcePoint" />
            <mxPoint x="410" y="1360" as="targetPoint" />
          </mxGeometry>
        </mxCell>
        <mxCell id="piL9ZrU1X9L6YbfZWIU2-64" value="Traversal Function" style="shape=note;whiteSpace=wrap;html=1;backgroundOutline=1;darkOpacity=0.05;" vertex="1" parent="1">
          <mxGeometry x="30" y="1700" width="80" height="100" as="geometry" />
        </mxCell>
        <mxCell id="piL9ZrU1X9L6YbfZWIU2-67" value="countains" style="rounded=0;orthogonalLoop=1;jettySize=auto;html=1;" edge="1" parent="1" source="piL9ZrU1X9L6YbfZWIU2-68" target="piL9ZrU1X9L6YbfZWIU2-69">
          <mxGeometry relative="1" as="geometry" />
        </mxCell>
        <mxCell id="piL9ZrU1X9L6YbfZWIU2-68" value="Specified Ordered Group" style="ellipse;whiteSpace=wrap;html=1;fillColor=#fff2cc;strokeColor=#d6b656;" vertex="1" parent="1">
          <mxGeometry x="150" y="1750" width="120" height="80" as="geometry" />
        </mxCell>
        <mxCell id="piL9ZrU1X9L6YbfZWIU2-69" value="Group Item" style="ellipse;whiteSpace=wrap;html=1;fillColor=#fff2cc;strokeColor=#d6b656;" vertex="1" parent="1">
          <mxGeometry x="520" y="1750" width="120" height="80" as="geometry" />
        </mxCell>
        <mxCell id="piL9ZrU1X9L6YbfZWIU2-70" style="edgeStyle=orthogonalEdgeStyle;rounded=0;orthogonalLoop=1;jettySize=auto;html=1;" edge="1" parent="1" source="piL9ZrU1X9L6YbfZWIU2-82" target="piL9ZrU1X9L6YbfZWIU2-68">
          <mxGeometry relative="1" as="geometry" />
        </mxCell>
        <mxCell id="piL9ZrU1X9L6YbfZWIU2-71" value="instance_of" style="edgeLabel;html=1;align=center;verticalAlign=middle;resizable=0;points=[];" vertex="1" connectable="0" parent="piL9ZrU1X9L6YbfZWIU2-70">
          <mxGeometry x="-0.12" y="4" relative="1" as="geometry">
            <mxPoint as="offset" />
          </mxGeometry>
        </mxCell>
        <mxCell id="piL9ZrU1X9L6YbfZWIU2-72" value="" style="edgeStyle=orthogonalEdgeStyle;rounded=0;orthogonalLoop=1;jettySize=auto;html=1;" edge="1" parent="1" source="piL9ZrU1X9L6YbfZWIU2-82" target="piL9ZrU1X9L6YbfZWIU2-87">
          <mxGeometry relative="1" as="geometry" />
        </mxCell>
        <mxCell id="piL9ZrU1X9L6YbfZWIU2-73" value="contains" style="edgeLabel;html=1;align=center;verticalAlign=middle;resizable=0;points=[];" vertex="1" connectable="0" parent="piL9ZrU1X9L6YbfZWIU2-72">
          <mxGeometry x="-0.2443" y="5" relative="1" as="geometry">
            <mxPoint as="offset" />
          </mxGeometry>
        </mxCell>
        <mxCell id="piL9ZrU1X9L6YbfZWIU2-74" style="edgeStyle=orthogonalEdgeStyle;rounded=0;orthogonalLoop=1;jettySize=auto;html=1;" edge="1" parent="1" source="piL9ZrU1X9L6YbfZWIU2-82" target="piL9ZrU1X9L6YbfZWIU2-94">
          <mxGeometry relative="1" as="geometry">
            <Array as="points">
              <mxPoint x="210" y="2170" />
            </Array>
          </mxGeometry>
        </mxCell>
        <mxCell id="piL9ZrU1X9L6YbfZWIU2-75" value="contains" style="edgeLabel;html=1;align=center;verticalAlign=middle;resizable=0;points=[];" vertex="1" connectable="0" parent="piL9ZrU1X9L6YbfZWIU2-74">
          <mxGeometry x="0.264" relative="1" as="geometry">
            <mxPoint as="offset" />
          </mxGeometry>
        </mxCell>
        <mxCell id="piL9ZrU1X9L6YbfZWIU2-78" style="edgeStyle=orthogonalEdgeStyle;rounded=0;orthogonalLoop=1;jettySize=auto;html=1;" edge="1" parent="1" source="piL9ZrU1X9L6YbfZWIU2-82" target="piL9ZrU1X9L6YbfZWIU2-87">
          <mxGeometry relative="1" as="geometry">
            <Array as="points">
              <mxPoint x="390" y="2010" />
              <mxPoint x="390" y="2010" />
            </Array>
          </mxGeometry>
        </mxCell>
        <mxCell id="piL9ZrU1X9L6YbfZWIU2-79" value="has_first_element" style="edgeLabel;html=1;align=center;verticalAlign=middle;resizable=0;points=[];" vertex="1" connectable="0" parent="piL9ZrU1X9L6YbfZWIU2-78">
          <mxGeometry x="-0.0289" y="6" relative="1" as="geometry">
            <mxPoint as="offset" />
          </mxGeometry>
        </mxCell>
        <mxCell id="piL9ZrU1X9L6YbfZWIU2-80" style="edgeStyle=orthogonalEdgeStyle;rounded=0;orthogonalLoop=1;jettySize=auto;html=1;" edge="1" parent="1" source="piL9ZrU1X9L6YbfZWIU2-82" target="piL9ZrU1X9L6YbfZWIU2-94">
          <mxGeometry relative="1" as="geometry">
            <Array as="points">
              <mxPoint x="210" y="2200" />
            </Array>
            <mxPoint x="540.3137303340318" y="2320.0000000000005" as="targetPoint" />
          </mxGeometry>
        </mxCell>
        <mxCell id="piL9ZrU1X9L6YbfZWIU2-81" value="has_last_element" style="edgeLabel;html=1;align=center;verticalAlign=middle;resizable=0;points=[];" vertex="1" connectable="0" parent="piL9ZrU1X9L6YbfZWIU2-80">
          <mxGeometry x="0.4266" y="4" relative="1" as="geometry">
            <mxPoint as="offset" />
          </mxGeometry>
        </mxCell>
        <mxCell id="piL9ZrU1X9L6YbfZWIU2-82" value="Traversal Function" style="ellipse;whiteSpace=wrap;html=1;fillColor=#e1d5e7;strokeColor=#9673a6;" vertex="1" parent="1">
          <mxGeometry x="150" y="2000" width="120" height="80" as="geometry" />
        </mxCell>
        <mxCell id="piL9ZrU1X9L6YbfZWIU2-83" style="edgeStyle=orthogonalEdgeStyle;rounded=0;orthogonalLoop=1;jettySize=auto;html=1;" edge="1" parent="1" source="piL9ZrU1X9L6YbfZWIU2-87" target="piL9ZrU1X9L6YbfZWIU2-69">
          <mxGeometry relative="1" as="geometry" />
        </mxCell>
        <mxCell id="piL9ZrU1X9L6YbfZWIU2-84" value="instance_of" style="edgeLabel;html=1;align=center;verticalAlign=middle;resizable=0;points=[];" vertex="1" connectable="0" parent="piL9ZrU1X9L6YbfZWIU2-83">
          <mxGeometry x="0.1153" y="-2" relative="1" as="geometry">
            <mxPoint as="offset" />
          </mxGeometry>
        </mxCell>
        <mxCell id="piL9ZrU1X9L6YbfZWIU2-85" style="edgeStyle=orthogonalEdgeStyle;rounded=0;orthogonalLoop=1;jettySize=auto;html=1;exitX=0.252;exitY=0.96;exitDx=0;exitDy=0;exitPerimeter=0;entryX=0.25;entryY=0.041;entryDx=0;entryDy=0;entryPerimeter=0;" edge="1" parent="1" source="piL9ZrU1X9L6YbfZWIU2-87" target="piL9ZrU1X9L6YbfZWIU2-94">
          <mxGeometry relative="1" as="geometry">
            <Array as="points" />
          </mxGeometry>
        </mxCell>
        <mxCell id="piL9ZrU1X9L6YbfZWIU2-86" value="next" style="edgeLabel;html=1;align=center;verticalAlign=middle;resizable=0;points=[];" vertex="1" connectable="0" parent="piL9ZrU1X9L6YbfZWIU2-85">
          <mxGeometry x="-0.0753" y="-1" relative="1" as="geometry">
            <mxPoint as="offset" />
          </mxGeometry>
        </mxCell>
        <mxCell id="piL9ZrU1X9L6YbfZWIU2-87" value="Traversal Rule 1" style="ellipse;whiteSpace=wrap;html=1;fillColor=#e1d5e7;strokeColor=#9673a6;" vertex="1" parent="1">
          <mxGeometry x="520" y="2000" width="120" height="80" as="geometry" />
        </mxCell>
        <mxCell id="piL9ZrU1X9L6YbfZWIU2-88" style="edgeStyle=orthogonalEdgeStyle;rounded=0;orthogonalLoop=1;jettySize=auto;html=1;" edge="1" parent="1" source="piL9ZrU1X9L6YbfZWIU2-94" target="piL9ZrU1X9L6YbfZWIU2-69">
          <mxGeometry relative="1" as="geometry">
            <Array as="points">
              <mxPoint x="680" y="2170" />
              <mxPoint x="680" y="1790" />
            </Array>
          </mxGeometry>
        </mxCell>
        <mxCell id="piL9ZrU1X9L6YbfZWIU2-89" value="instance_of" style="edgeLabel;html=1;align=center;verticalAlign=middle;resizable=0;points=[];" vertex="1" connectable="0" parent="piL9ZrU1X9L6YbfZWIU2-88">
          <mxGeometry x="0.0609" y="-1" relative="1" as="geometry">
            <mxPoint as="offset" />
          </mxGeometry>
        </mxCell>
        <mxCell id="piL9ZrU1X9L6YbfZWIU2-90" style="edgeStyle=orthogonalEdgeStyle;rounded=0;orthogonalLoop=1;jettySize=auto;html=1;" edge="1" parent="1" source="piL9ZrU1X9L6YbfZWIU2-94" target="piL9ZrU1X9L6YbfZWIU2-87">
          <mxGeometry relative="1" as="geometry">
            <Array as="points">
              <mxPoint x="610" y="2100" />
              <mxPoint x="610" y="2100" />
            </Array>
          </mxGeometry>
        </mxCell>
        <mxCell id="piL9ZrU1X9L6YbfZWIU2-91" value="before" style="edgeLabel;html=1;align=center;verticalAlign=middle;resizable=0;points=[];" vertex="1" connectable="0" parent="piL9ZrU1X9L6YbfZWIU2-90">
          <mxGeometry x="0.0128" y="-2" relative="1" as="geometry">
            <mxPoint as="offset" />
          </mxGeometry>
        </mxCell>
        <mxCell id="piL9ZrU1X9L6YbfZWIU2-94" value="Traversal Rule 2" style="ellipse;whiteSpace=wrap;html=1;fillColor=#e1d5e7;strokeColor=#9673a6;" vertex="1" parent="1">
          <mxGeometry x="520" y="2130" width="120" height="80" as="geometry" />
        </mxCell>
        <mxCell id="piL9ZrU1X9L6YbfZWIU2-98" value="Traversal Function&lt;div&gt;Call&lt;/div&gt;&lt;div&gt;&lt;br&gt;&lt;/div&gt;" style="shape=note;whiteSpace=wrap;html=1;backgroundOutline=1;darkOpacity=0.05;" vertex="1" parent="1">
          <mxGeometry x="50" y="2310" width="80" height="100" as="geometry" />
        </mxCell>
        <mxCell id="piL9ZrU1X9L6YbfZWIU2-103" value="calls" style="edgeStyle=orthogonalEdgeStyle;rounded=0;orthogonalLoop=1;jettySize=auto;html=1;" edge="1" parent="1" source="piL9ZrU1X9L6YbfZWIU2-99" target="piL9ZrU1X9L6YbfZWIU2-102">
          <mxGeometry relative="1" as="geometry" />
        </mxCell>
        <mxCell id="piL9ZrU1X9L6YbfZWIU2-105" value="with" style="edgeStyle=orthogonalEdgeStyle;rounded=0;orthogonalLoop=1;jettySize=auto;html=1;" edge="1" parent="1" source="piL9ZrU1X9L6YbfZWIU2-99" target="piL9ZrU1X9L6YbfZWIU2-104">
          <mxGeometry relative="1" as="geometry">
            <Array as="points">
              <mxPoint x="250" y="2250" />
              <mxPoint x="650" y="2250" />
            </Array>
          </mxGeometry>
        </mxCell>
        <mxCell id="piL9ZrU1X9L6YbfZWIU2-99" value="Function Call" style="ellipse;whiteSpace=wrap;html=1;fillColor=#fff2cc;strokeColor=#d6b656;" vertex="1" parent="1">
          <mxGeometry x="190" y="2280" width="120" height="80" as="geometry" />
        </mxCell>
        <mxCell id="piL9ZrU1X9L6YbfZWIU2-101" value="implements" style="edgeStyle=orthogonalEdgeStyle;rounded=0;orthogonalLoop=1;jettySize=auto;html=1;" edge="1" parent="1" source="piL9ZrU1X9L6YbfZWIU2-100" target="piL9ZrU1X9L6YbfZWIU2-99">
          <mxGeometry relative="1" as="geometry" />
        </mxCell>
        <mxCell id="piL9ZrU1X9L6YbfZWIU2-115" value="is" style="edgeStyle=orthogonalEdgeStyle;rounded=0;orthogonalLoop=1;jettySize=auto;html=1;" edge="1" parent="1" source="piL9ZrU1X9L6YbfZWIU2-100" target="piL9ZrU1X9L6YbfZWIU2-114">
          <mxGeometry relative="1" as="geometry" />
        </mxCell>
        <mxCell id="piL9ZrU1X9L6YbfZWIU2-100" value="Traversal Function Call" style="ellipse;whiteSpace=wrap;html=1;fillColor=#e1d5e7;strokeColor=#9673a6;" vertex="1" parent="1">
          <mxGeometry x="190" y="2730" width="120" height="80" as="geometry" />
        </mxCell>
        <mxCell id="piL9ZrU1X9L6YbfZWIU2-108" value="implements" style="edgeStyle=orthogonalEdgeStyle;rounded=0;orthogonalLoop=1;jettySize=auto;html=1;" edge="1" parent="1" source="piL9ZrU1X9L6YbfZWIU2-102" target="piL9ZrU1X9L6YbfZWIU2-106">
          <mxGeometry relative="1" as="geometry" />
        </mxCell>
        <mxCell id="piL9ZrU1X9L6YbfZWIU2-102" value="Function" style="ellipse;whiteSpace=wrap;html=1;fillColor=#fff2cc;strokeColor=#d6b656;" vertex="1" parent="1">
          <mxGeometry x="420" y="2280" width="120" height="80" as="geometry" />
        </mxCell>
        <mxCell id="piL9ZrU1X9L6YbfZWIU2-109" value="implements" style="edgeStyle=orthogonalEdgeStyle;rounded=0;orthogonalLoop=1;jettySize=auto;html=1;" edge="1" parent="1" source="piL9ZrU1X9L6YbfZWIU2-104" target="piL9ZrU1X9L6YbfZWIU2-107">
          <mxGeometry relative="1" as="geometry" />
        </mxCell>
        <mxCell id="piL9ZrU1X9L6YbfZWIU2-104" value="Function Arguments" style="ellipse;whiteSpace=wrap;html=1;fillColor=#fff2cc;strokeColor=#d6b656;" vertex="1" parent="1">
          <mxGeometry x="590" y="2280" width="120" height="80" as="geometry" />
        </mxCell>
        <mxCell id="piL9ZrU1X9L6YbfZWIU2-111" value="of" style="edgeStyle=orthogonalEdgeStyle;rounded=0;orthogonalLoop=1;jettySize=auto;html=1;" edge="1" parent="1" source="piL9ZrU1X9L6YbfZWIU2-106" target="piL9ZrU1X9L6YbfZWIU2-110">
          <mxGeometry relative="1" as="geometry" />
        </mxCell>
        <mxCell id="piL9ZrU1X9L6YbfZWIU2-106" value="Specified Ordered Group" style="ellipse;whiteSpace=wrap;html=1;fillColor=#fff2cc;strokeColor=#d6b656;" vertex="1" parent="1">
          <mxGeometry x="420" y="2401" width="120" height="80" as="geometry" />
        </mxCell>
        <mxCell id="piL9ZrU1X9L6YbfZWIU2-113" value="of" style="edgeStyle=orthogonalEdgeStyle;rounded=0;orthogonalLoop=1;jettySize=auto;html=1;" edge="1" parent="1" source="piL9ZrU1X9L6YbfZWIU2-107" target="piL9ZrU1X9L6YbfZWIU2-112">
          <mxGeometry relative="1" as="geometry" />
        </mxCell>
        <mxCell id="piL9ZrU1X9L6YbfZWIU2-107" value="Specified Ordered Group" style="ellipse;whiteSpace=wrap;html=1;fillColor=#fff2cc;strokeColor=#d6b656;" vertex="1" parent="1">
          <mxGeometry x="590" y="2401" width="120" height="80" as="geometry" />
        </mxCell>
        <mxCell id="piL9ZrU1X9L6YbfZWIU2-110" value="Rule" style="ellipse;whiteSpace=wrap;html=1;fillColor=#fff2cc;strokeColor=#d6b656;" vertex="1" parent="1">
          <mxGeometry x="260" y="2401" width="120" height="80" as="geometry" />
        </mxCell>
        <mxCell id="piL9ZrU1X9L6YbfZWIU2-112" value="Specified Ordered Group Item" style="ellipse;whiteSpace=wrap;html=1;fillColor=#fff2cc;strokeColor=#d6b656;" vertex="1" parent="1">
          <mxGeometry x="750" y="2401" width="120" height="80" as="geometry" />
        </mxCell>
        <mxCell id="piL9ZrU1X9L6YbfZWIU2-116" value="implements" style="edgeStyle=orthogonalEdgeStyle;rounded=0;orthogonalLoop=1;jettySize=auto;html=1;" edge="1" parent="1" source="piL9ZrU1X9L6YbfZWIU2-114" target="piL9ZrU1X9L6YbfZWIU2-102">
          <mxGeometry x="0.04" relative="1" as="geometry">
            <Array as="points">
              <mxPoint x="490" y="2700" />
              <mxPoint x="560" y="2700" />
              <mxPoint x="560" y="2320" />
            </Array>
            <mxPoint as="offset" />
          </mxGeometry>
        </mxCell>
        <mxCell id="piL9ZrU1X9L6YbfZWIU2-114" value="Traversal Function" style="ellipse;whiteSpace=wrap;html=1;fillColor=#e1d5e7;strokeColor=#9673a6;" vertex="1" parent="1">
          <mxGeometry x="430" y="2730" width="120" height="80" as="geometry" />
        </mxCell>
      </root>
    </mxGraphModel>
  </diagram>
</mxfile>
